<?xml version="1.0" encoding="utf-8"?>
<!-- Generator: Adobe Illustrator 24.1.0, SVG Export Plug-In . SVG Version: 6.00 Build 0)  -->
<svg version="1.1" id="Capa_1" xmlns="http://www.w3.org/2000/svg" xmlns:xlink="http://www.w3.org/1999/xlink" x="0px" y="0px"
	 viewBox="0 0 194 50" style="enable-background:new 0 0 194 50;" xml:space="preserve">
<style type="text/css">
	.st0{fill:#FFCA02;
	-webkit-animation: logo1 3s forwards 5s;
-moz-animation: logo1 3s forwards 5s;
-o-animation: logo1 3s forwards 5s;
animation: logo1 3s forwards 5s;}


	.st1{fill:#3F3F3F;
	-webkit-animation: logo2 3s forwards 6s;
-moz-animation: logo2 3s forwards 6s;
-o-animation: logo2 3s forwards 6s;
animation: logo2 3s forwards 6s;}


	.st2{fill:#808080;}




	.st3{fill:none;stroke:#626567;
	stroke-width:0.5;
	stroke-dasharray: 140;
	stroke-dashoffset: 0;
	stroke-miterlimit:10;
	-webkit-animation: animacion 16s forwards;
    -moz-animation: animacion 16s forwards;
    -o-animation: animacion 16s forwards;
    animation: animacion 16s forwards;}
	
@-webkit-keyframes animacion {
0% {
stroke-dashoffset: 140;
}
90% {
stroke: #fff;
}

100% {
stroke-dashoffset: 0;
stroke: transparent;
}
}

@-keyframes animacion {
0% {
stroke-dashoffset: 140;
}
90% {
stroke: #3F3F3F;
}

100% {
stroke-dashoffset: 0;
stroke: transparent;
}
}

@-webkit-keyframes logo1 {
from {
fill: transparent;
}

to {
fill: #FFCA02;
}
}

@-keyframes logo2 {
from {
fill: #transparent;
}

to {
fill: #3F3F3F;
}
}



	
</style>
<path id="icono_amarillo" class="st0" d="M28.96,9.68C15.41,18.11,1.1,15.3,1.1,15.3s0.13,22.35,10.86,27.21
	c0,0,5.62,4.09,11.25,1.79C41.1,36.98,28.96,9.68,28.96,9.68z M5.84,28.96c3.31-8.41,8.68-2.29,8.68-2.29
	C8.32,26.42,5.97,28.82,5.84,28.96z M20.91,40.21c-4.81,1.05-8.5-3.71-8.18-4.34c0.19-0.39,1.89,0.6,4.5,0.7
	c3.89,0.14,7.12-1.79,9.3-3.51C26.48,36.55,24.09,39.51,20.91,40.21z M20.84,25.15c0.12-0.31,3.12-7.42,8.94-0.74
	C29.57,24.31,26.56,22.87,20.84,25.15z"/>
<path id="icono_gris" class="st1" d="M24.99,5.2l-3.32,6.65l7.41-3.32c0,0,7.41,10.47,4.86,22.23c0,0,3.83,2.55,3.06,6.89
	l-4.08-3.32c0,0,1.02,2.81-2.81,6.9c0,0,18.9,2.05,21.71-27.59C51.82,13.64,37.26,14.15,24.99,5.2z M37.29,21.34
	c5.1,3.35,8.33,2.59,8.61,2.52C38.73,29.34,37.29,21.34,37.29,21.34z"/>
<path id="texto" class="st2" d="M62.52,28.17v11.65h-3.38V10.28h6.23c1.57,0,2.67,0.39,3.29,1.18c0.62,0.79,0.93,1.89,0.93,3.31v8.9
	c0,1.42-0.31,2.53-0.93,3.32c-0.62,0.78-1.72,1.18-3.29,1.18H62.52z M62.52,25.28h2.18c0.62,0,1.07-0.18,1.33-0.53
	c0.27-0.36,0.4-0.87,0.4-1.56v-8.01c0-0.62-0.13-1.09-0.4-1.4c-0.27-0.31-0.71-0.47-1.33-0.47h-2.18V25.28z M71.07,39.82V10.28h8.1
	v3.03h-4.8v9.52h4.36v3.03h-4.36V36.8h5.07v3.02H71.07z M80.76,39.82V10.28h3.38v26.47h5.16v3.07H80.76z M90.73,39.82V10.28h3.38
	v29.54H90.73z M95.53,39.82v-3.07l6.58-23.44h-6.54v-3.03h9.88v3.03L98.96,36.8h6.67v3.02H95.53z M114.66,39.82V27.5l-4.27-17.22
	h3.34l2.54,11.39h0.18l2.45-11.39h3.25L118,27.54v12.28H114.66z M134.63,19.31v-3.78c0-0.71-0.17-1.28-0.51-1.69
	c-0.34-0.42-0.87-0.62-1.58-0.62c-0.68,0-1.19,0.19-1.53,0.56c-0.34,0.37-0.51,0.85-0.51,1.45v3.16c0,0.86,0.08,1.49,0.24,1.89
	c0.16,0.4,0.48,0.82,0.96,1.27c0.39,0.39,0.8,0.76,1.25,1.11c0.45,0.36,0.9,0.7,1.36,1.02c0.46,0.33,0.9,0.66,1.31,1
	c0.41,0.34,0.77,0.68,1.07,1c0.5,0.53,0.87,1.13,1.11,1.8c0.24,0.67,0.36,1.57,0.36,2.69v4.32c0,1.81-0.43,3.18-1.29,4.12
	c-0.86,0.93-2.27,1.4-4.23,1.4c-1.96,0-3.37-0.48-4.25-1.45c-0.87-0.96-1.31-2.4-1.31-4.29v-3.29h3.16v3.56c0,1.6,0.76,2.4,2.27,2.4
	c1.42,0,2.14-0.73,2.14-2.18v-3.74c0-1.04-0.1-1.79-0.29-2.27c-0.19-0.48-0.56-0.96-1.09-1.47c-0.8-0.77-1.61-1.46-2.42-2.07
	c-0.82-0.61-1.53-1.31-2.16-2.11c-0.98-1.27-1.47-2.91-1.47-4.89v-3.03c0-1.51,0.42-2.74,1.27-3.67c0.85-0.93,2.19-1.4,4.03-1.4
	c0.98,0,1.81,0.14,2.49,0.42c0.68,0.28,1.22,0.68,1.62,1.2c0.4,0.52,0.69,1.13,0.87,1.85c0.18,0.71,0.27,1.48,0.27,2.31v3.43H134.63
	z M139.75,39.82V10.28h8.1v3.03h-4.8v9.52h4.36v3.03h-4.36V36.8h5.07v3.02H139.75z M149.44,39.82V10.28h6.23
	c1.57,0,2.67,0.39,3.29,1.18c0.62,0.79,0.94,1.89,0.94,3.31v6.76c0,2.02-0.74,3.2-2.22,3.56v0.18c0.74,0.15,1.31,0.5,1.71,1.05
	c0.4,0.55,0.6,1.39,0.6,2.51v10.99h-3.29V28.57c0-0.65-0.12-1.13-0.36-1.42c-0.24-0.3-0.68-0.44-1.34-0.44h-2.27v13.12H149.44z
	 M156.69,15.18c0-1.25-0.59-1.87-1.78-1.87h-2.18v10.63h2.22c0.53,0,0.96-0.16,1.27-0.47s0.47-0.85,0.47-1.62V15.18z M161.54,39.82
	V10.28h3.38v29.54H161.54z M166.61,39.82V10.28h8.1v3.03h-4.8v9.52h4.36v3.03h-4.36V36.8h5.07v3.02H166.61z M183.74,19.31v-3.78
	c0-0.71-0.17-1.28-0.51-1.69c-0.34-0.42-0.87-0.62-1.58-0.62c-0.68,0-1.19,0.19-1.53,0.56c-0.34,0.37-0.51,0.85-0.51,1.45v3.16
	c0,0.86,0.08,1.49,0.24,1.89c0.16,0.4,0.48,0.82,0.96,1.27c0.38,0.39,0.8,0.76,1.25,1.11s0.9,0.7,1.36,1.02
	c0.46,0.33,0.9,0.66,1.31,1c0.42,0.34,0.77,0.68,1.07,1c0.5,0.53,0.87,1.13,1.11,1.8c0.24,0.67,0.36,1.57,0.36,2.69v4.32
	c0,1.81-0.43,3.18-1.29,4.12c-0.86,0.93-2.27,1.4-4.23,1.4c-1.96,0-3.37-0.48-4.25-1.45c-0.88-0.96-1.31-2.4-1.31-4.29v-3.29h3.16
	v3.56c0,1.6,0.76,2.4,2.27,2.4c1.42,0,2.14-0.73,2.14-2.18v-3.74c0-1.04-0.1-1.79-0.29-2.27c-0.19-0.48-0.56-0.96-1.09-1.47
	c-0.8-0.77-1.61-1.46-2.42-2.07c-0.82-0.61-1.53-1.31-2.16-2.11c-0.98-1.27-1.47-2.91-1.47-4.89v-3.03c0-1.51,0.42-2.74,1.27-3.67
	c0.84-0.93,2.19-1.4,4.03-1.4c0.98,0,1.81,0.14,2.49,0.42c0.68,0.28,1.22,0.68,1.62,1.2c0.4,0.52,0.69,1.13,0.87,1.85
	c0.18,0.71,0.27,1.48,0.27,2.31v3.43H183.74z"/>
<path id="trazo" class="st3" d="M28.96,9.68C15.41,18.11,1.1,15.3,1.1,15.3s0.13,22.35,10.86,27.21c0,0,5.62,4.09,11.25,1.79
	C41.1,36.98,28.96,9.68,28.96,9.68z M5.84,28.96c3.31-8.41,8.68-2.29,8.68-2.29C8.32,26.42,5.97,28.82,5.84,28.96z M20.91,40.21
	c-4.81,1.05-8.5-3.71-8.18-4.34c0.19-0.39,1.89,0.6,4.5,0.7c3.89,0.14,7.12-1.79,9.3-3.51C26.48,36.55,24.09,39.51,20.91,40.21z
	 M20.84,25.15c0.12-0.31,3.12-7.42,8.94-0.74C29.57,24.31,26.56,22.87,20.84,25.15z M24.99,5.2l-3.32,6.65l7.41-3.32
	c0,0,7.41,10.47,4.86,22.23c0,0,3.83,2.55,3.06,6.89l-4.08-3.32c0,0,1.02,2.81-2.81,6.9c0,0,18.9,2.05,21.71-27.59
	C51.82,13.64,37.26,14.15,24.99,5.2z M37.29,21.34c5.1,3.35,8.33,2.59,8.61,2.52C38.73,29.34,37.29,21.34,37.29,21.34z M62.52,28.17
	v11.65h-3.38V10.28h6.23c1.57,0,2.67,0.39,3.29,1.18c0.62,0.79,0.93,1.89,0.93,3.31v8.9c0,1.42-0.31,2.53-0.93,3.32
	c-0.62,0.78-1.72,1.18-3.29,1.18H62.52z M62.52,25.28h2.18c0.62,0,1.07-0.18,1.33-0.53c0.27-0.36,0.4-0.87,0.4-1.56v-8.01
	c0-0.62-0.13-1.09-0.4-1.4c-0.27-0.31-0.71-0.47-1.33-0.47h-2.18V25.28z M71.07,39.82V10.28h8.1v3.03h-4.8v9.52h4.36v3.03h-4.36
	V36.8h5.07v3.02H71.07z M80.76,39.82V10.28h3.38v26.47h5.16v3.07H80.76z M90.73,39.82V10.28h3.38v29.54H90.73z M95.53,39.82v-3.07
	l6.58-23.44h-6.54v-3.03h9.88v3.03L98.96,36.8h6.67v3.02H95.53z M114.66,39.82V27.5l-4.27-17.22h3.34l2.54,11.39h0.18l2.45-11.39
	h3.25L118,27.54v12.28H114.66z M134.63,19.31v-3.78c0-0.71-0.17-1.28-0.51-1.69c-0.34-0.42-0.87-0.62-1.58-0.62
	c-0.68,0-1.19,0.19-1.53,0.56c-0.34,0.37-0.51,0.85-0.51,1.45v3.16c0,0.86,0.08,1.49,0.24,1.89c0.16,0.4,0.48,0.82,0.96,1.27
	c0.39,0.39,0.8,0.76,1.25,1.11c0.45,0.36,0.9,0.7,1.36,1.02c0.46,0.33,0.9,0.66,1.31,1c0.41,0.34,0.77,0.68,1.07,1
	c0.5,0.53,0.87,1.13,1.11,1.8c0.24,0.67,0.36,1.57,0.36,2.69v4.32c0,1.81-0.43,3.18-1.29,4.12c-0.86,0.93-2.27,1.4-4.23,1.4
	c-1.96,0-3.37-0.48-4.25-1.45c-0.87-0.96-1.31-2.4-1.31-4.29v-3.29h3.16v3.56c0,1.6,0.76,2.4,2.27,2.4c1.42,0,2.14-0.73,2.14-2.18
	v-3.74c0-1.04-0.1-1.79-0.29-2.27c-0.19-0.48-0.56-0.96-1.09-1.47c-0.8-0.77-1.61-1.46-2.42-2.07c-0.82-0.61-1.53-1.31-2.16-2.11
	c-0.98-1.27-1.47-2.91-1.47-4.89v-3.03c0-1.51,0.42-2.74,1.27-3.67c0.85-0.93,2.19-1.4,4.03-1.4c0.98,0,1.81,0.14,2.49,0.42
	c0.68,0.28,1.22,0.68,1.62,1.2c0.4,0.52,0.69,1.13,0.87,1.85c0.18,0.71,0.27,1.48,0.27,2.31v3.43H134.63z M139.75,39.82V10.28h8.1
	v3.03h-4.8v9.52h4.36v3.03h-4.36V36.8h5.07v3.02H139.75z M149.44,39.82V10.28h6.23c1.57,0,2.67,0.39,3.29,1.18
	c0.62,0.79,0.94,1.89,0.94,3.31v6.76c0,2.02-0.74,3.2-2.22,3.56v0.18c0.74,0.15,1.31,0.5,1.71,1.05c0.4,0.55,0.6,1.39,0.6,2.51
	v10.99h-3.29V28.57c0-0.65-0.12-1.13-0.36-1.42c-0.24-0.3-0.68-0.44-1.34-0.44h-2.27v13.12H149.44z M156.69,15.18
	c0-1.25-0.59-1.87-1.78-1.87h-2.18v10.63h2.22c0.53,0,0.96-0.16,1.27-0.47s0.47-0.85,0.47-1.62V15.18z M161.54,39.82V10.28h3.38
	v29.54H161.54z M166.61,39.82V10.28h8.1v3.03h-4.8v9.52h4.36v3.03h-4.36V36.8h5.07v3.02H166.61z M183.74,19.31v-3.78
	c0-0.71-0.17-1.28-0.51-1.69c-0.34-0.42-0.87-0.62-1.58-0.62c-0.68,0-1.19,0.19-1.53,0.56c-0.34,0.37-0.51,0.85-0.51,1.45v3.16
	c0,0.86,0.08,1.49,0.24,1.89c0.16,0.4,0.48,0.82,0.96,1.27c0.38,0.39,0.8,0.76,1.25,1.11s0.9,0.7,1.36,1.02
	c0.46,0.33,0.9,0.66,1.31,1c0.42,0.34,0.77,0.68,1.07,1c0.5,0.53,0.87,1.13,1.11,1.8c0.24,0.67,0.36,1.57,0.36,2.69v4.32
	c0,1.81-0.43,3.18-1.29,4.12c-0.86,0.93-2.27,1.4-4.23,1.4c-1.96,0-3.37-0.48-4.25-1.45c-0.88-0.96-1.31-2.4-1.31-4.29v-3.29h3.16
	v3.56c0,1.6,0.76,2.4,2.27,2.4c1.42,0,2.14-0.73,2.14-2.18v-3.74c0-1.04-0.1-1.79-0.29-2.27c-0.19-0.48-0.56-0.96-1.09-1.47
	c-0.8-0.77-1.61-1.46-2.42-2.07c-0.82-0.61-1.53-1.31-2.16-2.11c-0.98-1.27-1.47-2.91-1.47-4.89v-3.03c0-1.51,0.42-2.74,1.27-3.67
	c0.84-0.93,2.19-1.4,4.03-1.4c0.98,0,1.81,0.14,2.49,0.42c0.68,0.28,1.22,0.68,1.62,1.2c0.4,0.52,0.69,1.13,0.87,1.85
	c0.18,0.71,0.27,1.48,0.27,2.31v3.43H183.74z"/>
</svg>
